<svg width="75" height="76" viewBox="0 0 75 76" fill="none" xmlns="http://www.w3.org/2000/svg">
<path d="M36.4014 0.474996C35.8594 1.12812 36.0059 1.5289 37.1338 2.56796C38.8916 4.17109 40.5176 6.66484 41.0596 8.55L41.2793 9.30703L38.4082 9.39609C36.8408 9.45546 34.9658 9.49999 34.248 9.49999H32.959L33.0469 9.08437C33.2227 8.37187 33.6914 7.2289 34.2188 6.2789C34.8193 5.19531 34.834 5.00234 34.3506 4.52734C33.8379 3.99296 33.0762 4.02265 32.6953 4.55703C32.1387 5.35859 31.3477 7.125 30.9668 8.4164C30.6006 9.63359 30.5713 9.97499 30.498 13.1664C30.4395 16.3281 30.4102 16.625 30.1758 16.6992C29.7217 16.8477 28.7402 18.05 28.5791 18.6437C28.4766 18.9852 28.418 20.8258 28.418 23.1711C28.418 27.4164 28.418 27.3719 29.1943 27.6539C29.7656 27.8617 30.5273 27.1641 32.1533 24.893L32.4609 24.4773L33.2227 24.982C35.7129 26.6891 38.8037 26.6148 41.1328 24.8187C41.4111 24.6109 41.6602 24.507 41.7334 24.5812C41.792 24.6555 42.1582 25.1453 42.5537 25.6797C43.6963 27.2383 44.0918 27.6094 44.6045 27.6094C44.8975 27.6094 45.1904 27.4758 45.3955 27.2531C45.7178 26.9117 45.7178 26.8672 45.6738 22.7703C45.6299 18.0797 45.5713 17.857 44.4287 16.9961L43.8428 16.5508L43.7549 13.2109C43.6816 9.61874 43.5645 8.95078 42.7588 6.82812C41.7334 4.11171 38.335 -4.30493e-06 37.1191 -4.30493e-06C36.9287 -4.30493e-06 36.6357 0.192964 36.4014 0.474996ZM41.5723 13.9828L41.6162 16.3133L40.9863 16.5953C39.8291 17.1148 38.9648 18.4062 38.9648 19.6383C38.9648 20.1578 39.2871 20.9297 39.873 21.8797L40.3418 22.607L39.9023 22.9484C39.0234 23.6758 38.2178 23.9578 37.0605 23.9578C36.1523 23.9727 35.8154 23.8984 35.1416 23.557C34.6875 23.3344 34.2188 23.0375 34.0869 22.8891C33.8525 22.6367 33.8818 22.5477 34.5117 21.4344C35.127 20.3508 35.1709 20.2023 35.127 19.4156C35.0391 18.2281 34.4385 17.2781 33.4424 16.7734L32.6807 16.4023V14.0719L32.666 11.7414L34.1016 11.682C34.8779 11.6672 36.8701 11.6375 38.5254 11.6375L41.5283 11.6523L41.5723 13.9828ZM43.374 19.0148C43.4473 19.1781 43.4912 20.143 43.4766 21.2562L43.4326 23.2305L42.3779 21.6422C41.8066 20.7812 41.2939 19.9203 41.2354 19.7422C41.1035 19.3266 41.5576 18.6734 42.0557 18.5398C42.5244 18.4359 43.1836 18.6586 43.374 19.0148ZM32.6221 18.8812C32.8125 19.0594 32.959 19.3414 32.959 19.5195C32.959 19.8016 31.7139 21.8352 30.9082 22.8594L30.6152 23.2305V21.2562C30.6152 19.3562 30.6299 19.2672 30.9814 18.9258C31.4355 18.4508 32.1533 18.4359 32.6221 18.8812Z" fill="white"/>
<path d="M48.8232 0.178125C48.4717 0.341406 48.1934 1.08359 48.1934 1.81094C48.1934 2.19688 48.1494 2.22656 47.5928 2.22656C46.9922 2.22656 46.4502 2.43438 46.2598 2.73125C46.2012 2.82031 46.1426 3.13203 46.1426 3.42891C46.1426 4.17109 46.4941 4.45313 47.417 4.45313H48.1494L48.2373 5.29922C48.3398 6.26406 48.6768 6.67969 49.3506 6.67969C50.083 6.67969 50.376 6.32344 50.4199 5.37344L50.4639 4.52734L51.2695 4.48281C52.2656 4.42344 52.5879 4.15625 52.5879 3.39922C52.5879 2.62734 52.0752 2.22656 51.1084 2.22656H50.3906V1.43984C50.3906 0.578906 50.3174 0.415625 49.8486 0.163281C49.4678 -0.0296874 49.248 -0.0296874 48.8232 0.178125Z" fill="white"/>
<path d="M20.2881 5.67031C19.8486 5.92266 19.7754 6.08594 19.7754 6.93203V7.71875H19.1016C18.0176 7.71875 17.5781 8.04531 17.5781 8.86172C17.5781 9.61875 18.0029 9.94531 18.9697 9.94531H19.7754V10.8211C19.7754 11.5781 19.8193 11.7414 20.0977 11.9344C20.5371 12.2461 21.1377 12.2313 21.5186 11.9047C21.7529 11.7266 21.8701 11.4297 21.9287 10.7914L22.0166 9.94531H22.7051C23.7891 9.94531 24.2285 9.41094 23.9795 8.41641C23.8477 7.94141 23.3936 7.71875 22.5439 7.71875C21.9873 7.71875 21.9727 7.70391 21.9727 7.21406C21.9727 6.47188 21.709 5.84844 21.2988 5.65547C20.8447 5.44766 20.6689 5.44766 20.2881 5.67031Z" fill="white"/>
<path d="M56.25 8.57969C55.9863 8.7875 55.8984 9.05469 55.8398 9.69297L55.7812 10.5391H55.0781C54.1406 10.5391 53.7012 10.8953 53.7012 11.6523C53.7012 12.4094 54.1406 12.7656 55.0781 12.7656H55.7812L55.8398 13.6117C55.9277 14.5617 56.2793 14.9922 56.9971 14.9922C57.6855 14.9922 58.0078 14.532 58.0078 13.582V12.7656H58.8135C59.7949 12.7656 60.2051 12.4391 60.2051 11.6672C60.2051 10.9547 59.6631 10.5391 58.7256 10.5391H58.0078V9.75234C58.0078 8.89141 57.9346 8.72813 57.4658 8.47578C57.0117 8.23828 56.6309 8.26797 56.25 8.57969Z" fill="white"/>
<path d="M53.1593 18.0352C51.6944 18.5102 51.6212 18.6437 47.4024 27.3867L43.5206 35.4023L41.9092 35.4469L40.2833 35.4914V31.9438C40.2833 28.5742 40.2686 28.3664 39.9757 27.9953C39.5948 27.5055 38.8184 27.4609 38.379 27.9062C38.1007 28.1883 38.086 28.3961 38.086 31.8398V35.4766H37.1339H36.1817V31.9289C36.1817 28.5742 36.1671 28.3664 35.8741 27.9953C35.4786 27.4906 34.7462 27.4609 34.3067 27.9508C33.9991 28.2922 33.9844 28.4109 33.9844 31.8844V35.4914L31.6846 35.4469L29.3702 35.4023L27.7589 30.5781L26.1329 25.7539L21.753 21.9984C19.336 19.9352 17.212 18.2133 17.0216 18.1539C16.5675 18.0352 15.9962 18.3172 15.835 18.7328C15.63 19.2672 13.4766 29.8656 13.4766 30.3109C13.4766 30.5188 13.8428 31.7508 14.2823 33.0273C14.7218 34.3187 15.088 35.3875 15.088 35.4172C15.088 35.4469 14.7803 35.4766 14.4141 35.4766C14.0479 35.4766 13.6231 35.5508 13.4766 35.625C12.5538 36.1297 11.7335 43.7594 12.1436 48.0937C12.4952 51.7156 13.2569 54.625 14.5899 57.3711C15.4688 59.182 16.9044 61.2898 17.3585 61.468C17.7979 61.6164 18.5743 61.2305 18.7501 60.7852C18.9259 60.3102 18.794 59.9539 18.0177 58.9297C17.1827 57.8016 15.7618 54.8328 15.3077 53.2148C14.5313 50.4836 14.3116 48.732 14.2969 45.1992C14.2823 42.1414 14.4141 40.5234 14.8096 38.475L14.9561 37.7031H27.2608H39.5655L39.4776 38.2523C39.0382 40.8352 38.2325 42.6461 36.7091 44.457L36.211 45.0508L35.7862 44.7242C34.5557 43.7445 32.8419 43.0469 31.6846 43.0469C28.7696 43.0469 26.1036 45.3922 25.6202 48.3758C25.21 51.0031 26.7774 53.868 29.1944 54.9367C29.6485 55.1297 30.0294 55.3672 30.0294 55.4562C30.0294 55.5602 29.6192 56.2578 29.1358 57.0148C27.5538 59.4641 24.6241 62.1211 22.3096 63.1898C21.0352 63.7836 21.0938 63.4422 21.0938 69.7359V75.2727L21.46 75.6289L21.8116 76H30.8057C39.4483 76 39.8292 75.9852 40.1514 75.718C40.4884 75.4359 40.503 75.3617 40.5469 72.6898L40.5909 69.9437L43.3302 69.8695C46.67 69.7805 48.1495 69.4539 50.6104 68.207C52.544 67.2422 53.7452 66.3516 55.3126 64.6891C57.6417 62.225 59.1505 59.182 59.6192 56.0203C59.8682 54.2688 59.9268 54.1352 60.4249 54.0312C61.963 53.7047 63.0469 52.3094 63.0469 50.6914C63.0323 49.875 62.9444 49.6078 61.8751 47.5C60.1026 44.0266 59.2823 41.1766 59.0919 37.8812C58.9747 36.0258 58.7403 35.4766 58.0665 35.4766C57.876 35.4766 57.7149 35.4469 57.7149 35.432C57.7149 35.4023 58.8428 33.0422 60.2344 30.1922L62.754 25.0117V23.9727C62.754 22.7852 62.461 22.0578 61.6407 21.2711C61.3624 21.0039 59.8975 20.1727 58.2569 19.3711C55.0635 17.7977 54.419 17.6344 53.1593 18.0352ZM57.2022 21.3156C58.6524 22.0281 59.9854 22.7406 60.1612 22.9039C60.7325 23.4234 60.7325 24.0469 60.2051 25.2195C59.9415 25.7984 59.6778 26.2734 59.6339 26.2734C59.5899 26.2734 59.0186 26.0508 58.3887 25.7687C57.7589 25.4867 57.129 25.2938 56.9971 25.3383C56.2794 25.6055 55.9425 26.3773 56.3233 26.9562C56.4405 27.1492 57.0118 27.55 57.5684 27.832C58.1397 28.1141 58.5938 28.3812 58.5938 28.4109C58.5938 28.4703 57.0997 31.6617 57.0264 31.7508C56.9971 31.7953 56.1915 31.4242 55.2247 30.9492C53.6134 30.1625 53.4376 30.1031 53.0567 30.2664C52.6173 30.4594 52.295 30.9641 52.295 31.4687C52.295 31.8844 52.9688 32.3742 54.5362 33.1016C55.3272 33.4727 55.9571 33.8141 55.9571 33.8883C55.9571 33.9477 55.796 34.3336 55.5909 34.7344L55.2247 35.4766H50.5958C47.8712 35.4766 45.9962 35.4172 46.0255 35.343C46.0548 35.2687 47.6514 31.9141 49.585 27.8914C53.2471 20.2914 53.3936 20.0391 54.2725 20.0391C54.4337 20.0391 55.752 20.618 57.2022 21.3156ZM21.4014 24.5961C22.5147 25.5609 23.4376 26.3773 23.4376 26.4367C23.4376 26.4812 22.7198 27.2086 21.8262 28.0398L20.2296 29.5539L18.0762 29.4055C16.8897 29.3164 15.9083 29.2273 15.8936 29.2125C15.879 29.1828 16.128 27.8914 16.4503 26.318L17.0362 23.4828L17.9298 23.1859C18.4278 23.0227 18.9405 22.8742 19.087 22.8742C19.2335 22.8594 20.2735 23.6461 21.4014 24.5961ZM25.9132 31.9438L27.085 35.4766H25.21H23.3204L22.6466 33.4281C22.2803 32.3148 21.9727 31.2906 21.9727 31.1719C21.9727 30.9937 24.6241 28.3219 24.6973 28.4109C24.712 28.4109 25.254 30.0141 25.9132 31.9438ZM19.2481 31.7508L19.8194 31.8398L20.3907 33.5469C20.6983 34.482 20.9473 35.2984 20.9473 35.3578C20.9473 35.432 20.1417 35.4617 19.1602 35.4469L17.3878 35.4023L16.8165 33.6953C16.5089 32.7602 16.2159 31.8844 16.1866 31.7508C16.1134 31.5281 16.2452 31.5133 17.3878 31.5727C18.0909 31.6172 18.9405 31.6914 19.2481 31.7508ZM56.836 37.8812C56.836 37.9852 56.9385 38.7719 57.0411 39.6328C57.4805 42.9578 58.5352 46.1195 60.2198 49.1477C60.6153 49.8602 60.9376 50.5727 60.9376 50.7359C60.9376 50.9141 60.7764 51.2258 60.586 51.4484C60.293 51.8047 60.1173 51.8641 59.2677 51.9234C58.0811 51.9977 57.7149 52.3539 57.7149 53.3781C57.7149 53.7195 57.6417 54.5359 57.5538 55.1594C56.9971 59.2711 54.5655 63.1453 51.1524 65.3867C49.8634 66.218 48.8526 66.6781 47.1827 67.1977C46.0255 67.5539 45.63 67.5836 42.4366 67.6727C37.9981 67.7914 38.379 67.4648 38.379 71.1164V73.7734H30.835H23.2911V69.4984V65.2086L23.7012 65.0305C23.921 64.9266 24.6387 64.4812 25.2833 64.0359C27.3341 62.6703 29.4727 60.518 30.7764 58.5437C31.7139 57.1484 32.8126 54.8773 32.8126 54.3875C32.8126 53.8086 32.2852 53.2891 31.7139 53.2891C30.3077 53.2891 28.7403 52.2648 28.1104 50.9437C27.7003 50.0977 27.6563 48.6133 28.0225 47.7672C28.4034 46.8469 29.3702 45.9117 30.293 45.5555C31.8311 44.9766 33.3839 45.4367 34.7901 46.8914C35.7423 47.8859 36.1378 47.9008 37.251 46.9805C39.0821 45.4664 40.7667 42.6461 41.294 40.182C41.4551 39.425 41.6309 38.5641 41.6749 38.2523L41.7628 37.7031H49.2921C55.2247 37.7031 56.836 37.7477 56.836 37.8812Z" fill="white"/>
<path d="M48.0469 41.2508C47.3145 41.4883 46.7725 41.8445 46.2451 42.4383C45.6299 43.1211 45.3223 43.7891 45.1904 44.7094C45.1172 45.2289 45.1465 45.4219 45.4102 45.7633C45.9961 46.5203 47.3145 46.1938 47.3145 45.2883C47.3145 44.2938 48.2227 43.3438 49.1895 43.3438C50.083 43.3438 50.9766 44.1602 50.9766 44.9766C50.9766 45.3328 51.2256 45.8821 51.4746 46.0453C51.5625 46.1047 51.8848 46.1641 52.1777 46.1641C54.0234 46.1641 53.1592 42.6906 51.0498 41.5774C50.2734 41.1766 48.7793 41.0133 48.0469 41.2508Z" fill="white"/>
<path d="M30.6886 48.4649C30.2491 48.9102 30.2198 49.4149 30.63 49.9344C31.2452 50.7211 32.3732 50.2461 32.3732 49.2071C32.3732 48.1828 31.3771 47.7524 30.6886 48.4649Z" fill="white"/>
</svg>
