<svg width="75" height="76" viewBox="0 0 75 76" fill="none" xmlns="http://www.w3.org/2000/svg">
<g clip-path="url(#clip0_10022_1064)">
<path d="M24.8 0.222674C23.5549 0.564081 22.7053 1.05392 21.7239 1.97424C19.4973 4.08205 18.9406 7.25861 20.3176 10.0938C20.801 11.118 21.2112 11.5781 25.6203 16.0758C28.2424 18.7625 30.6447 21.1524 30.9524 21.4047C31.6262 21.9539 32.5637 22.1024 33.1936 21.7758C33.428 21.6422 35.9328 19.193 38.76 16.2985C44.1653 10.8063 44.4582 10.45 44.9123 8.68361C45.1467 7.80783 45.176 6.27892 44.9563 5.35861C44.1213 1.66252 40.1955 -0.727326 36.5481 0.222674C35.3469 0.549237 34.468 1.06877 33.2815 2.15236L32.2707 3.10236L31.4065 2.21174C29.634 0.385956 27.0559 -0.385919 24.8 0.222674ZM28.3889 2.59767C28.8283 2.80549 29.6047 3.38439 30.1467 3.90392C31.3039 5.03205 31.6408 5.22502 32.3879 5.22502C33.135 5.21017 33.4133 5.03205 34.6731 3.82971C36.0354 2.52346 36.7824 2.18205 38.2326 2.16721C39.1994 2.15236 39.4631 2.21174 40.3127 2.64221C41.3821 3.17658 42.1145 3.93361 42.6418 5.03205C42.9055 5.55158 42.9787 5.99689 42.9787 6.90236C42.9934 9.01018 42.8469 9.21799 37.2072 14.918L32.3733 19.8164L27.4514 14.8438C23.9065 11.2664 22.427 9.6633 22.1633 9.12893C21.6506 8.11955 21.5481 6.59064 21.8996 5.41799C22.1926 4.51252 23.0862 3.35471 23.9358 2.83517C25.2102 2.03361 26.968 1.92971 28.3889 2.59767Z" fill="white"/>
<path d="M51.3427 4.1414C50.5517 4.34921 49.6875 4.88359 49.2773 5.41796C48.4863 6.47187 48.5009 6.36796 48.4863 15.868V24.7L46.7724 22.9781C44.7802 21.0039 44.2236 20.707 42.7881 20.8109C41.0009 20.9445 39.6972 22.2953 39.58 24.1359C39.5361 24.8039 39.5947 25.2937 39.7558 25.7391C39.917 26.1695 41.3379 27.9062 44.2968 31.3352L48.6035 36.293L48.1201 36.8422C47.3437 37.7031 47.2851 38.1039 47.3437 42.3344L47.3877 46.1344L47.8271 46.7875C48.0761 47.1289 48.5156 47.5594 48.8232 47.7226L49.3652 48.0195V61.3937C49.3652 70.775 49.4091 74.9016 49.5263 75.243C49.8047 76.0594 50.5957 76.2523 51.1963 75.6289L51.5625 75.2726V61.75V48.2422H58.5937H65.625V61.8242C65.625 75.2133 65.625 75.4062 65.9179 75.7031C66.3134 76.1039 66.958 76.0891 67.3535 75.6586L67.6757 75.3172V61.6461V47.975L68.0273 47.8859C68.5107 47.7672 69.4922 46.5945 69.6972 45.8969C69.917 45.1398 69.9316 38.8906 69.7119 38.0891C69.624 37.7773 69.3017 37.243 68.9795 36.8867L68.4082 36.2633L69.1259 34.7195C69.5214 33.8734 70.0195 32.6414 70.2246 31.9883C70.9863 29.7023 71.0449 28.8859 71.0449 21.5383V14.7695L70.6933 14.0125C69.9316 12.3352 68.1591 11.5781 66.2548 12.1125C65.9472 12.2016 65.9179 12.157 65.9179 11.5484C65.9179 10.643 65.2734 9.41093 64.497 8.80234C63.6035 8.13437 62.4902 7.89687 61.4648 8.19375C60.6738 8.4164 60.6591 8.4164 60.5859 8.08984C60.4248 7.43671 59.6484 6.57578 58.872 6.175C57.9785 5.72968 56.7041 5.65546 55.8984 5.99687L55.415 6.20468L54.917 5.52187C54.1259 4.43828 52.5439 3.82968 51.3427 4.1414ZM52.9687 6.50156C53.5986 7.02109 53.6132 7.11015 53.6132 14.443C53.6132 21.0781 53.6279 21.5086 53.8769 21.8352C54.2138 22.2508 54.9463 22.2805 55.3711 21.8945C55.6494 21.6422 55.6494 21.4047 55.6933 15.1852L55.7373 8.72812L56.2207 8.29765C56.8652 7.71875 57.539 7.71875 58.1836 8.29765L58.667 8.72812L58.7402 15.5117L58.8134 22.2953L59.165 22.5773C59.6045 22.9336 59.9267 22.9336 60.4101 22.5477L60.791 22.2508V16.9219C60.791 13.968 60.8496 11.4297 60.9228 11.2367C61.4062 9.975 63.0908 9.88593 63.706 11.0883C63.8086 11.3109 63.8672 13.1219 63.8672 16.7734V22.132L64.2334 22.4883C64.6728 22.9336 65.0244 22.9484 65.5371 22.5477L65.9179 22.2508V18.8516C65.9179 16.9812 65.9765 15.2891 66.0498 15.0961C66.5332 13.8344 68.2177 13.7453 68.833 14.9477C69.0527 15.3781 69.0527 27.1344 68.833 28.7523C68.6425 30.2219 68.042 32.0477 67.0752 34.1406L66.3134 35.7734L58.6084 35.7586H50.9033L46.3769 30.5187C43.8867 27.6391 41.792 25.1602 41.7334 24.9969C41.4843 24.3586 41.6015 23.8687 42.0996 23.3641C42.6269 22.8297 43.125 22.7258 43.6963 23.0227C43.872 23.1117 45.1757 24.3586 46.5966 25.7687C48.2373 27.4312 49.2773 28.3516 49.4677 28.3516C49.6289 28.3516 49.9365 28.218 50.1416 28.0398L50.5371 27.743L50.5664 17.4266L50.6103 7.09531L51.0937 6.66484C51.6504 6.16015 52.4707 6.08593 52.9687 6.50156ZM67.4121 38.2672C67.749 38.5937 67.749 38.668 67.749 42.0078C67.749 45.3476 67.749 45.4219 67.4121 45.7484L67.0752 46.0898L58.9892 46.1344C54.5507 46.1641 50.6836 46.1344 50.4199 46.0898C50.1709 46.0453 49.8193 45.8523 49.6582 45.6891C49.3798 45.3922 49.3652 45.1547 49.3652 42.0078C49.3652 38.5047 49.3798 38.3859 50.0244 38.0148C50.2295 37.9109 52.7783 37.8664 58.6963 37.8961L67.0752 37.9258L67.4121 38.2672Z" fill="white"/>
<path d="M7.51465 14.3688C6.0498 14.9031 5.00977 15.868 4.36523 17.3227C4.10156 17.8867 4.04297 18.3172 4.02832 19.3711C4.02832 21.5234 4.2041 21.7906 8.48145 26.1695C10.459 28.2031 12.2607 29.9547 12.4805 30.0734C12.7002 30.1922 13.1543 30.2812 13.5059 30.2812C14.1357 30.2812 14.1357 30.2812 18.0322 26.3031C22.6172 21.6422 22.6318 21.6125 22.6318 19.3711C22.6318 18.05 22.5879 17.7977 22.2217 17.0555C21.4307 15.4078 19.6729 14.2352 17.8564 14.1313C16.4941 14.0422 15.4688 14.3836 14.2822 15.3039L13.3154 16.0461L12.7148 15.5117C11.3525 14.25 9.15527 13.775 7.51465 14.3688ZM10.3711 16.4766C10.708 16.625 11.3379 17.1 11.7773 17.5156C13.0371 18.718 13.7695 18.7031 15.0732 17.4414C16.0254 16.5211 16.7139 16.1797 17.5781 16.1797C19.8047 16.1797 21.3428 18.6586 20.3613 20.6922C20.1855 21.0633 18.7793 22.607 16.7432 24.6852L13.4033 28.0547L9.8584 24.4625C6.21094 20.7367 6.00586 20.4695 6.00586 19.3117C6.00586 17.1 8.37891 15.5563 10.3711 16.4766Z" fill="white"/>
<path d="M22.4416 26.3625C21.6652 26.7485 21.2258 27.2235 20.7131 28.2032C20.4494 28.693 20.4348 29.2571 20.3908 37.6141L20.3469 46.5055L18.633 44.7985C17.0803 43.2399 16.8313 43.0469 16.0695 42.8242C15.0002 42.5125 14.2385 42.6164 13.2131 43.1953C11.4406 44.2344 10.9279 46.5797 12.0998 48.3313C12.3781 48.7469 17.1682 54.3282 20.2736 57.861L20.5666 58.1875L20.1858 58.6032C19.3068 59.5532 19.2629 59.7461 19.219 63.561C19.1897 65.7133 19.2336 67.2867 19.3215 67.643C19.5412 68.4594 20.2297 69.3649 20.8596 69.6766L21.3869 69.9289V72.5711C21.3869 75.0203 21.4162 75.243 21.6945 75.6141C22.0315 76.0446 22.6174 76.1336 23.0861 75.7922C23.3352 75.5992 23.3645 75.3321 23.4377 72.8532L23.511 70.1367L30.5129 70.0922L37.5002 70.0625V72.6602C37.5002 75.2282 37.5002 75.2727 37.8664 75.6289C38.2912 76.0742 38.8039 76.1039 39.2727 75.718C39.6096 75.436 39.6242 75.3617 39.6682 72.675L39.7121 69.9141L40.1076 69.7063C40.6057 69.4391 41.2063 68.786 41.5139 68.1774C41.7043 67.7766 41.7483 67.1086 41.7483 63.9024C41.7483 59.7313 41.7043 59.5086 40.8693 58.6625L40.4006 58.1727L41.0744 56.6586C42.9934 52.2946 42.9934 52.2649 42.9934 43.5664C42.9934 36.5008 42.9934 36.4414 42.6711 35.8328C42.261 35.0461 41.3381 34.2446 40.591 34.0219C39.9026 33.7992 38.8186 33.7992 38.3205 33.9922C37.969 34.1258 37.9397 34.0961 37.9397 33.725C37.9397 33.4875 37.8371 32.9383 37.7053 32.493C37.3977 31.4539 36.4016 30.4297 35.4055 30.1477C34.7463 29.9547 33.4426 29.9844 32.9299 30.2071C32.7395 30.2813 32.6369 30.1922 32.4611 29.7914C32.1535 29.0196 31.2014 28.1289 30.3957 27.8469C29.5022 27.55 28.9016 27.55 28.0373 27.8469C27.4221 28.0547 27.3342 28.0547 27.217 27.8469C26.2942 26.1696 24.1408 25.5016 22.4416 26.3625ZM24.6535 28.218C25.5031 28.6633 25.4885 28.3961 25.4885 35.9367C25.4885 40.5977 25.5471 43.0024 25.6496 43.3289C25.9279 44.1453 26.719 44.3383 27.3195 43.7149L27.6858 43.3586V37.05V30.7563L28.052 30.311C28.257 30.0586 28.6233 29.8211 28.8576 29.7617C29.385 29.643 30.2199 30.0141 30.4397 30.4742C30.5568 30.6969 30.6301 32.8492 30.6447 37.4508L30.6887 44.1157L31.0402 44.3977C31.509 44.7836 32.0217 44.7539 32.4465 44.3086L32.8127 43.9524V38.6086C32.8127 34.7789 32.8567 33.1461 32.9885 32.8789C33.1789 32.4336 33.7942 32.0625 34.3068 32.0625C34.7902 32.0625 35.5813 32.5969 35.6692 32.9828C35.7131 33.1758 35.757 35.7586 35.7717 38.7125L35.8156 44.1157L36.1672 44.3977C36.636 44.7836 37.1486 44.7539 37.5735 44.3086L37.9397 43.9524V40.4641V36.9907L38.3205 36.5305C38.7893 35.9664 39.4924 35.8032 40.1076 36.1297C40.3567 36.2633 40.635 36.5008 40.7229 36.6492C40.8108 36.8422 40.8693 39.3211 40.8693 43.611C40.8693 51.8492 40.8547 51.968 39.0969 55.9016L38.3352 57.5938L30.5568 57.5641L22.7932 57.5196L18.7795 52.918C13.4768 46.8321 13.6233 47.025 13.6233 46.2383C13.6233 45.3922 14.2238 44.8282 15.1174 44.8282C15.7033 44.8282 15.8059 44.9172 18.384 47.5C20.6838 49.8008 21.1086 50.1719 21.5041 50.1719C21.8117 50.1719 22.0461 50.0532 22.2512 49.786C22.5588 49.4 22.5588 49.2813 22.5588 39.2617C22.5588 29.1383 22.5588 29.1383 22.8664 28.7375C23.3645 28.0992 24.0383 27.9063 24.6535 28.218ZM39.3606 60.1469C39.6975 60.4586 39.6975 60.5032 39.6975 63.8578V67.2571L39.3313 67.6133L38.9797 67.9844H30.5715C22.2805 67.9844 22.1486 67.9844 21.7678 67.6727L21.3869 67.3758V63.8875C21.3869 60.6071 21.4016 60.3992 21.6799 60.1172C21.9729 59.8203 22.1633 59.8203 30.4983 59.8203H39.0236L39.3606 60.1469Z" fill="white"/>
</g>
<defs>
<clipPath id="clip0_10022_1064">
<rect width="75" height="76" fill="white"/>
</clipPath>
</defs>
</svg>
